<svg width="22" height="24" viewBox="0 0 22 24" fill="none" xmlns="http://www.w3.org/2000/svg">
<path d="M9.6326 19.8685H11.485V18.4744C12.3671 18.3072 13.1256 17.9447 13.7607 17.3871C14.3958 16.8295 14.7134 16.0023 14.7134 14.9057C14.7134 14.125 14.5017 13.4094 14.0783 12.7588C13.6549 12.1083 12.8081 11.5414 11.5379 11.0581C10.4794 10.6863 9.74726 10.3611 9.34151 10.0823C8.93575 9.80344 8.73287 9.4224 8.73287 8.93913C8.73287 8.45586 8.89606 8.07482 9.22243 7.79601C9.5488 7.5172 10.0207 7.37779 10.6382 7.37779C11.2027 7.37779 11.6437 7.52184 11.9613 7.80995C12.2788 8.09805 12.5082 8.45586 12.6493 8.88337L14.3429 8.15846C14.1489 7.5079 13.7916 6.94099 13.2712 6.45772C12.7508 5.97445 12.173 5.70493 11.5379 5.64917V4.25512H9.68552V5.64917C8.80344 5.85363 8.11541 6.26255 7.62144 6.87593C7.12748 7.48932 6.88049 8.17705 6.88049 8.93913C6.88049 9.81274 7.12307 10.5191 7.60821 11.0581C8.09336 11.5971 8.85636 12.0618 9.89722 12.4521C11.0086 12.8796 11.7805 13.2607 12.2127 13.5953C12.6449 13.9298 12.861 14.3666 12.861 14.9057C12.861 15.5191 12.6537 15.9698 12.2392 16.2579C11.8246 16.546 11.3262 16.6901 10.744 16.6901C10.1618 16.6901 9.64583 16.4995 9.19596 16.1185C8.7461 15.7375 8.41532 15.1659 8.20362 14.4038L6.45709 15.1287C6.70408 16.0209 7.08778 16.7412 7.60821 17.2895C8.12864 17.8378 8.80344 18.2142 9.6326 18.4187V19.8685ZM10.5852 23.2142C9.12099 23.2142 7.74494 22.9215 6.45709 22.336C5.16925 21.7505 4.04901 20.9559 3.09636 19.9521C2.14371 18.9484 1.38953 17.7681 0.833813 16.4112C0.2781 15.0544 0.000244141 13.6046 0.000244141 12.0618C0.000244141 10.5191 0.2781 9.06924 0.833813 7.71236C1.38953 6.35549 2.14371 5.17519 3.09636 4.17147C4.04901 3.16776 5.16925 2.37315 6.45709 1.78765C7.74494 1.20214 9.12099 0.909393 10.5852 0.909393C12.0495 0.909393 13.4256 1.20214 14.7134 1.78765C16.0012 2.37315 17.1215 3.16776 18.0741 4.17147C19.0268 5.17519 19.781 6.35549 20.3367 7.71236C20.8924 9.06924 21.1702 10.5191 21.1702 12.0618C21.1702 13.6046 20.8924 15.0544 20.3367 16.4112C19.781 17.7681 19.0268 18.9484 18.0741 19.9521C17.1215 20.9559 16.0012 21.7505 14.7134 22.336C13.4256 22.9215 12.0495 23.2142 10.5852 23.2142Z" fill="white"/>
</svg>
