<svg width="27" height="24" viewBox="0 0 27 24" fill="none" xmlns="http://www.w3.org/2000/svg">
<path d="M10.6011 22.9264L10.5937 22.9227L10.5704 22.9079C10.4343 22.8209 10.2992 22.7316 10.1652 22.64C8.55449 21.528 7.04925 20.2219 5.67444 18.7431C3.23966 16.1038 0.659912 12.1872 0.659912 7.36341C0.659912 3.76401 3.26717 0.909572 6.41408 0.909572C7.28889 0.904594 8.15342 1.12881 8.94337 1.56553C9.73331 2.00226 10.4283 2.64027 10.9768 3.4321C11.5253 2.64011 12.2205 2.002 13.0107 1.56527C13.8008 1.12853 14.6655 0.904409 15.5405 0.909572C18.6864 0.909572 21.2936 3.76401 21.2936 7.36341C21.2936 12.1884 18.7139 16.105 16.2791 18.7418C14.9043 20.2207 13.3991 21.5269 11.7884 22.6387C11.6544 22.7307 11.5193 22.8205 11.3831 22.9079L11.3598 22.9227L11.3524 22.9276L11.3492 22.9288C11.2345 22.9995 11.1066 23.0364 10.9768 23.0364C10.8469 23.0364 10.7191 22.9995 10.6043 22.9288L10.6011 22.9264Z" fill="white"/>
<path d="M18.5077 20.8946L21.9928 14.3266H19.5893V10.0767L15.9841 16.6447H18.5077V20.8946ZM18.9884 23.2127C17.8802 23.2127 16.8386 23.0098 15.8639 22.6042C14.8892 22.1985 14.0413 21.6479 13.3202 20.9525C12.5992 20.2571 12.0283 19.4393 11.6077 18.4992C11.1871 17.559 10.9768 16.5545 10.9768 15.4856C10.9768 14.4167 11.1871 13.4122 11.6077 12.4721C12.0283 11.5319 12.5992 10.7142 13.3202 10.0187C14.0413 9.3233 14.8892 8.77275 15.8639 8.36708C16.8386 7.96141 17.8802 7.75858 18.9884 7.75858C20.0967 7.75858 21.1382 7.96141 22.113 8.36708C23.0877 8.77275 23.9356 9.3233 24.6567 10.0187C25.3777 10.7142 25.9485 11.5319 26.3691 12.4721C26.7898 13.4122 27.0001 14.4167 27.0001 15.4856C27.0001 16.5545 26.7898 17.559 26.3691 18.4992C25.9485 19.4393 25.3777 20.2571 24.6567 20.9525C23.9356 21.6479 23.0877 22.1985 22.113 22.6042C21.1382 23.0098 20.0967 23.2127 18.9884 23.2127Z" fill="#894189"/>
<path d="M18.9156 20.4027L22.0839 14.4318H19.8989V10.5683L16.6214 16.5392H18.9156V20.4027ZM19.3526 22.5101C18.3451 22.5101 17.3983 22.3257 16.5121 21.9569C15.626 21.5881 14.8552 21.0876 14.1997 20.4554C13.5442 19.8232 13.0253 19.0798 12.6429 18.2251C12.2605 17.3705 12.0693 16.4573 12.0693 15.4855C12.0693 14.5138 12.2605 13.6006 12.6429 12.7459C13.0253 11.8913 13.5442 11.1478 14.1997 10.5156C14.8552 9.88342 15.626 9.38291 16.5121 9.01412C17.3983 8.64533 18.3451 8.46094 19.3526 8.46094C20.3602 8.46094 21.307 8.64533 22.1931 9.01412C23.0793 9.38291 23.8501 9.88342 24.5056 10.5156C25.1611 11.1478 25.68 11.8913 26.0624 12.7459C26.4447 13.6006 26.6359 14.5138 26.6359 15.4855C26.6359 16.4573 26.4447 17.3705 26.0624 18.2251C25.68 19.0798 25.1611 19.8232 24.5056 20.4554C23.8501 21.0876 23.0793 21.5881 22.1931 21.9569C21.307 22.3257 20.3602 22.5101 19.3526 22.5101Z" fill="white"/>
</svg>
